<?xml version="1.0" standalone="no"?><!DOCTYPE svg PUBLIC "-//W3C//DTD SVG 1.1//EN" "http://www.w3.org/Graphics/SVG/1.1/DTD/svg11.dtd"><svg t="1557127139812" class="icon" style="" viewBox="0 0 1024 1024" version="1.1" xmlns="http://www.w3.org/2000/svg" p-id="6059" xmlns:xlink="http://www.w3.org/1999/xlink" width="200" height="200"><defs><style type="text/css"></style></defs><path d="M512 1024C229.239467 1024 0 794.760533 0 512S229.239467 0 512 0 1024 229.239467 1024 512 794.760533 1024 512 1024z m247.216356-573.895111c0.295822-4.050489 0.432356-8.192 0.432355-12.379022 0-102.627556-85.174044-186.1632-189.758578-186.1632H476.501333c-104.6528 0-189.735822 83.512889-189.735822 186.140444 0 4.164267 0.136533 8.283022 0.4096 12.424533C238.205156 475.136 204.8 525.243733 204.8 583.042844c0 67.857067 46.125511 125.155556 109.3632 143.633067v32.768c0 20.48 16.292978 37.000533 36.340622 37.000533H386.844444c20.0704 0 36.340622-16.543289 36.340623-37.000533v-26.578489h200.180622v26.578489c0 20.48 16.270222 37.000533 36.340622 37.000533h36.317867c20.0704 0 36.340622-16.543289 36.340622-37.000533v-32.927289c63.123911-18.523022 109.090133-75.776 109.090133-143.542044 0.136533-57.730844-33.268622-107.838578-82.238577-132.846934z" p-id="6060" fill="#ffffff"></path><path d="M341.378844 632.945778a54.567822 54.567822 0 0 1-54.6816-54.454045 54.567822 54.567822 0 0 1 54.6816-54.454044 54.567822 54.567822 0 0 1 54.6816 54.454044 54.567822 54.567822 0 0 1-54.6816 54.454045zM357.944889 433.152c-5.643378 0-11.218489 0.295822-16.725333 0.864711 2.002489-70.929067 61.667556-128 134.712888-128h94.390045c73.090844 0 132.7104 57.070933 134.712889 128a161.200356 161.200356 0 0 0-16.634311-0.864711H357.922133zM705.240178 632.945778a54.499556 54.499556 0 0 1-54.545067-54.454045 54.499556 54.499556 0 0 1 54.545067-54.454044 54.499556 54.499556 0 0 1 54.545066 54.454044 54.499556 54.499556 0 0 1-54.545066 54.454045z" p-id="6061" fill="#ffffff"></path></svg>