<?xml version="1.0" standalone="no"?><!DOCTYPE svg PUBLIC "-//W3C//DTD SVG 1.1//EN" "http://www.w3.org/Graphics/SVG/1.1/DTD/svg11.dtd"><svg t="1557127213467" class="icon" style="" viewBox="0 0 1024 1024" version="1.1" xmlns="http://www.w3.org/2000/svg" p-id="6450" xmlns:xlink="http://www.w3.org/1999/xlink" width="200" height="200"><defs><style type="text/css"></style></defs><path d="M966.899 552.014l-110.155-382.223c-3.827-13.276-15.341-22.893-29.085-24.292-13.658-1.392-26.795 5.617-33.262 17.713l-0.007-0.004-198.099 370.524c-22.857-13.705-47.445-24.814-73.376-32.89 55.301-33.447 92.268-94.155 92.268-163.5 0-105.457-85.489-190.946-190.946-190.946s-190.946 85.489-190.946 190.946c0 68.627 36.211 128.788 90.563 162.447-140.224 42.006-242.423 172.011-242.423 325.906v67.715h680.379v-67.715c0-99.415-42.652-188.862-110.644-251.062l45.65-85.382 223.68 104.177c0.201 0.093 0.401 0.185 0.603 0.273 2.772 1.23 5.741 2.098 8.846 2.543 1.605 0.233 3.221 0.347 4.832 0.347 0.162 0 0.325-0.001 0.486-0.003 18.478-0.245 33.378-15.3 33.378-33.835-0.001-3.754-0.612-7.363-1.74-10.738z" p-id="6451" fill="#ffffff"></path></svg>