<?xml version="1.0" standalone="no"?><!DOCTYPE svg PUBLIC "-//W3C//DTD SVG 1.1//EN" "http://www.w3.org/Graphics/SVG/1.1/DTD/svg11.dtd"><svg t="1557126923143" class="icon" style="" viewBox="0 0 1024 1024" version="1.1" xmlns="http://www.w3.org/2000/svg" p-id="3289" xmlns:xlink="http://www.w3.org/1999/xlink" width="200" height="200"><defs><style type="text/css"></style></defs><path d="M523.3 133c-54.7 0-99 45.8-99 102.2h198.1C622.3 178.8 578 133 523.3 133z" fill="#ffffff" p-id="3290"></path><path d="M83.2 811.3h857.5c9.5 0 17.1 7.7 17.1 17.1 0 9.5-7.7 17.1-17.1 17.1H83.2c-9.5 0-17.1-7.7-17.1-17.1 0-9.4 7.7-17.1 17.1-17.1zM523.3 264.4c-220.6 0-399.4 178.8-399.4 399.4v126.9h798.8V663.8c0-220.6-178.8-399.4-399.4-399.4zM370.9 377.8c-43.1 19.3-79.2 51.5-103.5 92-2.7 4.5-8.5 6.2-13.3 3.9l-0.1-0.1c-5.1-2.5-7.1-8.6-4.6-13.7 0.1-0.3 0.3-0.5 0.4-0.7 26.5-44.1 65.9-79 112.8-100 5.1-2.3 11.2 0 13.5 5.1 2.3 5.2 0 11.2-5.2 13.5z" fill="#ffffff" p-id="3291"></path><path d="M523.3 269.3c9.7 0 19.3 0.5 28.9 1.5v-35.6h-62.8v36.1c11.2-1.3 22.5-2 33.9-2z" fill="#ffffff" p-id="3292"></path></svg>