<?xml version="1.0" standalone="no"?><!DOCTYPE svg PUBLIC "-//W3C//DTD SVG 1.1//EN" "http://www.w3.org/Graphics/SVG/1.1/DTD/svg11.dtd"><svg t="1557126979805" class="icon" style="" viewBox="0 0 1024 1024" version="1.1" xmlns="http://www.w3.org/2000/svg" p-id="3546" xmlns:xlink="http://www.w3.org/1999/xlink" width="200" height="200"><defs><style type="text/css"></style></defs><path d="M837.376 960 538.304 960l0-307.712 384.576 0 0 220.864C922.88 921.152 884.608 960 837.376 960zM538.304 338.24 495.552 338.24l0 270.656L101.184 608.896 101.184 425.088c0-47.936 38.272-86.784 85.44-86.784L367.36 338.304C193.792 300.288 219.136 145.664 239.232 121.216 259.2 96.832 303.296 37.12 410.112 77.824c56.192 21.376 88.64 92.224 106.816 154.688 18.24-62.464 50.624-133.312 106.816-154.688 106.88-40.704 150.848 18.944 170.88 43.392 20.032 24.448 45.504 179.072-128.128 217.024l170.88 0c47.232 0 85.504 38.848 85.504 86.784l0 183.872L538.304 608.896 538.304 338.24zM367.36 121.216C303.296 140.224 324.672 208 324.672 208s14.656 90.88 170.88 86.784C495.552 294.848 437.504 100.416 367.36 121.216zM709.248 208c0 0 21.376-67.84-42.752-86.784C596.224 100.416 538.304 294.848 538.304 294.848 694.528 298.944 709.248 208 709.248 208zM495.552 960 186.624 960c-47.168 0-85.44-38.848-85.44-86.784l0-220.864 394.368 0L495.552 960z" p-id="3547" fill="#ffffff"></path></svg>