<?xml version="1.0" standalone="no"?><!DOCTYPE svg PUBLIC "-//W3C//DTD SVG 1.1//EN" "http://www.w3.org/Graphics/SVG/1.1/DTD/svg11.dtd"><svg t="1557127027147" class="icon" style="" viewBox="0 0 1024 1024" version="1.1" xmlns="http://www.w3.org/2000/svg" p-id="3985" xmlns:xlink="http://www.w3.org/1999/xlink" width="200" height="200"><defs><style type="text/css"></style></defs><path d="M949.523 470.377c6.304-4.595 10.003-11.947 10.003-19.747v-197.143h-894.37v197.377c0 7.777 3.678 15.111 9.952 19.709 32.433 23.767 53.493 62.135 53.493 105.425s-21.062 81.658-53.493 105.425c-6.273 4.597-9.952 11.932-9.952 19.709v194.99h894.37v-194.754c0-7.8-3.699-15.152-10.003-19.747-32.587-23.752-53.767-62.211-53.767-105.623s21.179-81.871 53.767-105.623zM830.589 830.632h-638.543v-511.653h638.543v511.653z" p-id="3986" fill="#ffffff"></path><path d="M767.144 382.424h-511.653v384.763h511.653v-384.763zM640.074 555.235l-58.592 57.114 13.832 80.646c1.018 5.939-5.215 10.468-10.548 7.665l-72.424-38.076-72.424 38.076c-5.333 2.804-11.567-1.725-10.548-7.665l13.832-80.646-58.592-57.114c-4.315-4.206-1.934-11.534 4.030-12.4l80.973-11.766 36.212-73.374c2.667-5.404 10.372-5.404 13.039 0l36.212 73.374 80.973 11.766c5.962 0.866 8.343 8.195 4.028 12.4z" p-id="3987" fill="#ffffff"></path></svg>